<?xml version="1.0" encoding="UTF-8" standalone="no"?>
<!-- Created with Inkscape (http://www.inkscape.org/) -->

<svg
   width="530.69275mm"
   height="108.28298mm"
   viewBox="0 0 530.69275 108.28298"
   version="1.1"
   id="svg1"
   xmlns:xlink="http://www.w3.org/1999/xlink"
   xmlns="http://www.w3.org/2000/svg"
   xmlns:svg="http://www.w3.org/2000/svg">
  <defs
     id="defs1">
    <linearGradient
       id="linearGradient39">
      <stop
         style="stop-color:#00e000;stop-opacity:1;"
         offset="0"
         id="stop39" />
      <stop
         style="stop-color:#1dff1d;stop-opacity:1;"
         offset="0.40102828"
         id="stop45" />
      <stop
         style="stop-color:#355317;stop-opacity:1;"
         offset="1"
         id="stop44" />
    </linearGradient>
    <linearGradient
       xlink:href="#linearGradient39"
       id="linearGradient43"
       x1="-0.35964444"
       y1="-115.16889"
       x2="105.94782"
       y2="-115.16889"
       gradientUnits="userSpaceOnUse" />
    <linearGradient
       xlink:href="#linearGradient39"
       id="linearGradient44"
       x1="-0.35964444"
       y1="-115.16889"
       x2="105.94782"
       y2="-115.16889"
       gradientUnits="userSpaceOnUse" />
    <linearGradient
       xlink:href="#linearGradient39"
       id="linearGradient45"
       gradientUnits="userSpaceOnUse"
       x1="-0.35964444"
       y1="-115.16889"
       x2="105.94782"
       y2="-115.16889" />
    <linearGradient
       xlink:href="#linearGradient39"
       id="linearGradient46"
       gradientUnits="userSpaceOnUse"
       x1="-0.35964444"
       y1="-115.16889"
       x2="105.94782"
       y2="-115.16889" />
    <linearGradient
       xlink:href="#linearGradient39"
       id="linearGradient47"
       gradientUnits="userSpaceOnUse"
       x1="-0.35964444"
       y1="-115.16889"
       x2="105.94782"
       y2="-115.16889" />
    <linearGradient
       xlink:href="#linearGradient39"
       id="linearGradient48"
       gradientUnits="userSpaceOnUse"
       x1="-0.35964444"
       y1="-115.16889"
       x2="105.94782"
       y2="-115.16889" />
    <linearGradient
       xlink:href="#linearGradient39"
       id="linearGradient50"
       x1="42.575386"
       y1="13.941001"
       x2="52.264095"
       y2="13.941001"
       gradientUnits="userSpaceOnUse"
       gradientTransform="matrix(-0.81452805,-1.1994872,1.2304497,-0.79403166,52.74534,107.45343)" />
    <linearGradient
       xlink:href="#linearGradient39"
       id="linearGradient51"
       gradientUnits="userSpaceOnUse"
       gradientTransform="matrix(-0.34505013,-1.3986111,-1.4347135,0.33636745,70.186363,85.949122)"
       x1="42.575386"
       y1="13.941001"
       x2="52.264095"
       y2="13.941001" />
    <linearGradient
       xlink:href="#linearGradient39"
       id="linearGradient52"
       gradientUnits="userSpaceOnUse"
       x1="-0.35964444"
       y1="-115.16889"
       x2="105.94782"
       y2="-115.16889" />
    <linearGradient
       xlink:href="#linearGradient39"
       id="linearGradient53"
       gradientUnits="userSpaceOnUse"
       x1="-0.35964444"
       y1="-115.16889"
       x2="105.94782"
       y2="-115.16889" />
    <linearGradient
       xlink:href="#linearGradient39"
       id="linearGradient54"
       gradientUnits="userSpaceOnUse"
       x1="-0.35964444"
       y1="-115.16889"
       x2="105.94782"
       y2="-115.16889" />
    <linearGradient
       xlink:href="#linearGradient39"
       id="linearGradient55"
       gradientUnits="userSpaceOnUse"
       x1="-0.35964444"
       y1="-115.16889"
       x2="105.94782"
       y2="-115.16889" />
  </defs>
  <g
     id="layer1"
     transform="translate(-1.0738742,-7.389064)">
    <g
       id="g8"
       transform="matrix(0.60371227,0.35140815,-0.25514562,0.720419,24.3727,126.04845)"
       style="fill:url(#linearGradient43);fill-rule:nonzero">
      <path
         style="fill:url(#linearGradient52);fill-opacity:1;fill-rule:nonzero;stroke-width:0.365001;paint-order:stroke fill markers"
         id="rect1"
         width="50"
         height="50"
         x="47.26326"
         y="-79.355598"
         d="M 56.161622,-79.355598 H 97.26326 v 50 h -50 v -41.101638 a 8.8983622,8.8983622 135 0 1 8.898362,-8.898362 z"
         transform="translate(-47.263262,-88.691552)" />
      <path
         style="fill:url(#linearGradient53);fill-opacity:1;fill-rule:nonzero;stroke-width:0.365001;paint-order:stroke fill markers"
         id="path2"
         width="50"
         height="50"
         x="47.26326"
         y="-79.355598"
         d="M 56.161622,-79.355598 H 97.26326 v 50 h -50 v -41.101638 a 8.8983622,8.8983622 135 0 1 8.898362,-8.898362 z"
         transform="rotate(90,120.72437,-94.715643)" />
      <path
         style="fill:url(#linearGradient54);fill-opacity:1;fill-rule:nonzero;stroke-width:0.365001;paint-order:stroke fill markers"
         id="path4"
         width="50"
         height="50"
         x="47.26326"
         y="-79.355598"
         d="M 56.161622,-79.355598 H 97.26326 v 50 h -50 v -41.101638 a 8.8983622,8.8983622 135 0 1 8.898362,-8.898362 z"
         transform="rotate(180,76.605541,-71.050066)" />
      <path
         style="fill:url(#linearGradient55);fill-opacity:1;fill-rule:nonzero;stroke-width:0.365001;paint-order:stroke fill markers"
         id="path6"
         width="50"
         height="50"
         x="47.26326"
         y="-79.355598"
         d="M 56.161622,-79.355598 H 97.26326 v 50 h -50 v -41.101638 a 8.8983622,8.8983622 135 0 1 8.898362,-8.898362 z"
         transform="rotate(-90,32.049089,-46.946865)" />
    </g>
    <g
       id="g21"
       transform="matrix(0.13440153,0.33235592,-0.25150066,0.20718816,-15.407769,71.803152)"
       style="fill:url(#linearGradient44);fill-rule:nonzero">
      <path
         style="fill:url(#linearGradient45);fill-opacity:1;fill-rule:nonzero;stroke-width:0.365001;paint-order:stroke fill markers"
         id="path18"
         width="50"
         height="50"
         x="47.26326"
         y="-79.355598"
         d="M 56.161622,-79.355598 H 97.26326 v 50 h -50 v -41.101638 a 8.8983622,8.8983622 135 0 1 8.898362,-8.898362 z"
         transform="translate(-47.263262,-88.691552)" />
      <path
         style="fill:url(#linearGradient46);fill-opacity:1;fill-rule:nonzero;stroke-width:0.365001;paint-order:stroke fill markers"
         id="path19"
         width="50"
         height="50"
         x="47.26326"
         y="-79.355598"
         d="M 56.161622,-79.355598 H 97.26326 v 50 h -50 v -41.101638 a 8.8983622,8.8983622 135 0 1 8.898362,-8.898362 z"
         transform="rotate(90,120.72437,-94.715643)" />
      <path
         style="fill:url(#linearGradient47);fill-opacity:1;fill-rule:nonzero;stroke-width:0.365001;paint-order:stroke fill markers"
         id="path20"
         width="50"
         height="50"
         x="47.26326"
         y="-79.355598"
         d="M 56.161622,-79.355598 H 97.26326 v 50 h -50 v -41.101638 a 8.8983622,8.8983622 135 0 1 8.898362,-8.898362 z"
         transform="rotate(180,76.605541,-71.050066)" />
      <path
         style="fill:url(#linearGradient48);fill-opacity:1;fill-rule:nonzero;stroke-width:0.365001;paint-order:stroke fill markers"
         id="path21"
         width="50"
         height="50"
         x="47.26326"
         y="-79.355598"
         d="M 56.161622,-79.355598 H 97.26326 v 50 h -50 v -41.101638 a 8.8983622,8.8983622 135 0 1 8.898362,-8.898362 z"
         transform="rotate(-90,32.049089,-46.946865)" />
    </g>
    <path
       style="fill:url(#linearGradient50);fill-rule:nonzero;stroke-width:0.531784;paint-order:stroke fill markers"
       id="path48"
       d="m 35.410098,35.732303 c 1.91637,0.725837 3.335501,0.887015 4.38885,1.151591 0.229252,0.178731 4.741537,3.864869 4.934299,4.078978 l -4.061849,-5.765417 c -0.463284,-0.349184 -0.905362,-0.724048 -1.354383,-1.090228 -0.460183,-0.294058 -0.929359,-0.589712 -1.452274,-0.765827 -0.57486,-0.215374 -1.135564,-0.49652 -1.754691,-0.56723 -1.007717,-0.06429 -2.017051,0.05553 -3.023104,0.102065 -1.268772,0.03541 -3.146486,2.405716 -4.414882,2.457488 2.557635,-0.735586 4.317944,-0.346135 6.738034,0.398583 z" />
    <path
       style="fill:url(#linearGradient51);fill-rule:nonzero;stroke-width:0.531784;paint-order:stroke fill markers"
       id="path51"
       d="m 28.172429,24.695188 c -0.761533,1.86164 -1.607924,2.983714 -2.127371,3.915374 -0.02212,0.285349 -0.331321,6.016466 -0.302017,6.299902 l -1.558464,-6.827197 c 0.05373,-0.568468 0.0737,-1.139314 0.104943,-1.70919 0.09298,-0.528679 0.190897,-1.064858 0.415164,-1.557881 0.230208,-0.556836 0.401402,-1.14841 0.770366,-1.638207 0.638671,-0.762583 1.416619,-1.400827 2.137332,-2.086681 0.891443,-0.880831 3.950459,-0.604374 4.853929,-1.473775 -2.295534,1.322833 -3.203163,2.84386 -4.29389,5.077655 z" />
  </g>
</svg>
